<svg class="header-img" width="200" height="200" viewBox="0 0 200 200" xmlns="http://www.w3.org/2000/svg"><polygon points="100,20 160,60 40,60 100,100 160,60 40,60" fill="blue" /><polygon points="40,60 40,140 100,180 100,100" fill="yellow" /><polygon points="40,60 100,100 100,120, 40,80" fill="blue" /><polygon points="160,60 160,140 100,180 100,100" fill="yellow" /><polygon points="160,60 160,80 100,120, 100,80" fill="blue" /><polygon points="100,20 160,60 160,140 100,180 40,140 40,60" fill="none" stroke="black" stroke-width="8" class="svg-wiki" /><line x1="100" y1="180" x2="100" y2="100" stroke="black" stroke-width="8" class="svg-wiki" /><line x1="160" y1="60" x2="100" y2="100" stroke="black" stroke-width="8" class="svg-wiki" /><line x1="40" y1="60" x2="100" y2="100" stroke="black" stroke-width="8" class="svg-wiki" /></svg>